<svg width="105px" height="52.5px" viewBox="0 0 97 24" fill="none" xmlns="http://www.w3.org/2000/svg">
<path d="M5.704 23.31C4.05067 23.31 2.80033 22.845 1.953 21.915C1.10567 20.9643 0.682 19.6107 0.682 17.854V16.614H3.906V18.102C3.906 19.5073 4.495 20.21 5.673 20.21C6.25167 20.21 6.68567 20.0447 6.975 19.714C7.285 19.3627 7.44 18.8047 7.44 18.04C7.44 17.1307 7.23333 16.335 6.82 15.653C6.40667 14.9503 5.642 14.1133 4.526 13.142C3.12067 11.902 2.139 10.786 1.581 9.794C1.023 8.78133 0.744 7.64467 0.744 6.384C0.744 4.66867 1.178 3.346 2.046 2.416C2.914 1.46533 4.17467 0.989999 5.828 0.989999C7.46067 0.989999 8.69033 1.46533 9.517 2.416C10.3643 3.346 10.788 4.68933 10.788 6.446V7.345H7.564V6.229C7.564 5.485 7.41933 4.94767 7.13 4.617C6.84067 4.26567 6.417 4.09 5.859 4.09C4.72233 4.09 4.154 4.78233 4.154 6.167C4.154 6.95233 4.36067 7.686 4.774 8.368C5.208 9.05 5.983 9.87667 7.099 10.848C8.525 12.088 9.50667 13.2143 10.044 14.227C10.5813 15.2397 10.85 16.428 10.85 17.792C10.85 19.5693 10.4057 20.9333 9.517 21.884C8.649 22.8347 7.378 23.31 5.704 23.31ZM17.7342 23.31C16.0602 23.31 14.7788 22.8347 13.8902 21.884C13.0015 20.9333 12.5572 19.59 12.5572 17.854V6.446C12.5572 4.71 13.0015 3.36667 13.8902 2.416C14.7788 1.46533 16.0602 0.989999 17.7342 0.989999C19.4082 0.989999 20.6895 1.46533 21.5782 2.416C22.4668 3.36667 22.9112 4.71 22.9112 6.446V17.854C22.9112 19.59 22.4668 20.9333 21.5782 21.884C20.6895 22.8347 19.4082 23.31 17.7342 23.31ZM17.7342 20.21C18.9122 20.21 19.5012 19.497 19.5012 18.071V6.229C19.5012 4.803 18.9122 4.09 17.7342 4.09C16.5562 4.09 15.9672 4.803 15.9672 6.229V18.071C15.9672 19.497 16.5562 20.21 17.7342 20.21ZM25.2173 1.3H30.2703C32.027 1.3 33.3083 1.71333 34.1143 2.54C34.9203 3.346 35.3233 4.59633 35.3233 6.291V7.624C35.3233 9.87667 34.5793 11.3027 33.0913 11.902V11.964C33.918 12.212 34.4966 12.7183 34.8273 13.483C35.1786 14.2477 35.3543 15.2707 35.3543 16.552V20.365C35.3543 20.985 35.375 21.4913 35.4163 21.884C35.4576 22.256 35.561 22.628 35.7263 23H32.2543C32.1303 22.6487 32.0476 22.318 32.0063 22.008C31.965 21.698 31.9443 21.14 31.9443 20.334V16.366C31.9443 15.374 31.779 14.6817 31.4483 14.289C31.1383 13.8963 30.5906 13.7 29.8053 13.7H28.6273V23H25.2173V1.3ZM29.8673 10.6C30.5493 10.6 31.0556 10.4243 31.3863 10.073C31.7376 9.72167 31.9133 9.13267 31.9133 8.306V6.632C31.9133 5.84667 31.7686 5.27833 31.4793 4.927C31.2106 4.57567 30.7766 4.4 30.1773 4.4H28.6273V10.6H29.8673ZM42.6492 23.31C40.9752 23.31 39.6939 22.8347 38.8052 21.884C37.9166 20.9333 37.4722 19.59 37.4722 17.854V6.446C37.4722 4.71 37.9166 3.36667 38.8052 2.416C39.6939 1.46533 40.9752 0.989999 42.6492 0.989999C44.3232 0.989999 45.6046 1.46533 46.4932 2.416C47.3819 3.36667 47.8262 4.71 47.8262 6.446V17.854C47.8262 19.59 47.3819 20.9333 46.4932 21.884C45.6046 22.8347 44.3232 23.31 42.6492 23.31ZM42.6492 20.21C43.8272 20.21 44.4162 19.497 44.4162 18.071V6.229C44.4162 4.803 43.8272 4.09 42.6492 4.09C41.4712 4.09 40.8822 4.803 40.8822 6.229V18.071C40.8822 19.497 41.4712 20.21 42.6492 20.21ZM54.9373 23.31C53.3047 23.31 52.0543 22.845 51.1863 21.915C50.339 20.985 49.9153 19.6727 49.9153 17.978V6.322C49.9153 4.62733 50.339 3.315 51.1863 2.385C52.0543 1.455 53.3047 0.989999 54.9373 0.989999C56.57 0.989999 57.81 1.455 58.6573 2.385C59.5253 3.315 59.9593 4.62733 59.9593 6.322V8.616H56.7353V6.105C56.7353 4.76167 56.167 4.09 55.0303 4.09C53.8937 4.09 53.3253 4.76167 53.3253 6.105V18.226C53.3253 19.5487 53.8937 20.21 55.0303 20.21C56.167 20.21 56.7353 19.5487 56.7353 18.226V14.909H59.9593V17.978C59.9593 19.6727 59.5253 20.985 58.6573 21.915C57.81 22.845 56.57 23.31 54.9373 23.31ZM61.9995 1.3H67.0525C68.8092 1.3 70.0905 1.71333 70.8965 2.54C71.7025 3.346 72.1055 4.59633 72.1055 6.291V7.624C72.1055 9.87667 71.3615 11.3027 69.8735 11.902V11.964C70.7002 12.212 71.2788 12.7183 71.6095 13.483C71.9608 14.2477 72.1365 15.2707 72.1365 16.552V20.365C72.1365 20.985 72.1572 21.4913 72.1985 21.884C72.2398 22.256 72.3432 22.628 72.5085 23H69.0365C68.9125 22.6487 68.8298 22.318 68.7885 22.008C68.7472 21.698 68.7265 21.14 68.7265 20.334V16.366C68.7265 15.374 68.5612 14.6817 68.2305 14.289C67.9205 13.8963 67.3728 13.7 66.5875 13.7H65.4095V23H61.9995V1.3ZM66.6495 10.6C67.3315 10.6 67.8378 10.4243 68.1685 10.073C68.5198 9.72167 68.6955 9.13267 68.6955 8.306V6.632C68.6955 5.84667 68.5508 5.27833 68.2615 4.927C67.9928 4.57567 67.5588 4.4 66.9595 4.4H65.4095V10.6H66.6495ZM74.5024 1.3H83.8024V4.4H77.9124V10.135H82.5934V13.235H77.9124V19.9H83.8024V23H74.5024V1.3ZM85.7642 1.3H90.9722C92.6668 1.3 93.9378 1.75467 94.7852 2.664C95.6325 3.57333 96.0562 4.90633 96.0562 6.663V17.637C96.0562 19.3937 95.6325 20.7267 94.7852 21.636C93.9378 22.5453 92.6668 23 90.9722 23H85.7642V1.3ZM90.9102 19.9C91.4682 19.9 91.8918 19.7347 92.1812 19.404C92.4912 19.0733 92.6462 18.536 92.6462 17.792V6.508C92.6462 5.764 92.4912 5.22667 92.1812 4.896C91.8918 4.56533 91.4682 4.4 90.9102 4.4H89.1742V19.9H90.9102Z" fill="#BEAC4B"/>
</svg>
